# xmcd
#
# Track frame offsets:
#	187
#	14290
#	29770
#	41990
#	60267
#	77392
#	95122
#	118982
#	133130
#	148132
#	163495
#	179315
#	196110
#	212987
#	228307
#	246320
#	266392
#	286417
#	303997
#	317887
#
# Disc length: 4434 seconds
#
# Revision: 1
# Processed by: cddbd v1.5PL3 Copyright (c) Steve Scherf et al.
# Submitted via: CDex 1.50Beta5
#
DISCID=30115014
DTITLE=ジョニー・ピアソン・オーケストラ - 朝もやの渚
DYEAR=1993
DGENRE=Easy Listening
TTITLE0=朝もやの渚
TTITLE1=悲しみのアリス
TTITLE2=落葉の並木道
TTITLE3=黄昏
TTITLE4=ウィナー
TTITLE5=アルゼンチンよ泣かないで
TTITLE6=素顔のままで
TTITLE7=小さなピアノの詩
TTITLE8=愛ある別れ
TTITLE9=コマネチのテーマ
TTITLE10=落葉のささやき
TTITLE11=風の吹くまま
TTITLE12=炎のランナー
TTITLE13=ラブ・ドリーマー
TTITLE14=エレファント・マン
TTITLE15=愛は面影の中に
TTITLE16=フィーリング
TTITLE17=ブラザー・サン,シスター・ムーン
TTITLE18=ラブ・プレリュード
TTITLE19=タッチ・ミー・イン・ザ・モーニング
EXTD=
EXTT0=
EXTT1=
EXTT2=
EXTT3=
EXTT4=
EXTT5=
EXTT6=
EXTT7=
EXTT8=
EXTT9=
EXTT10=
EXTT11=
EXTT12=
EXTT13=
EXTT14=
EXTT15=
EXTT16=
EXTT17=
EXTT18=
EXTT19=
PLAYORDER=
